<?xml version="1.0" encoding="UTF-8" standalone="no"?><!-- Generator: Gravit.io --><svg xmlns="http://www.w3.org/2000/svg" xmlns:xlink="http://www.w3.org/1999/xlink" style="isolation:isolate" viewBox="0 0 290 75" width="290pt" height="75pt"><g><path d=" M 44.528 45.41 C 44.18 43.233 43.86 41.114 41.916 39.024 C 40.087 37.05 37.417 36.034 34.717 36.034 C 28.448 36.034 24.036 40.62 24.036 46.658 C 24.036 52.492 28.245 57.397 35.095 57.397 C 40.929 57.397 43.164 53.392 44.267 51.273 L 43.048 50.692 C 41.829 52.637 39.797 55.917 35.704 55.917 C 30.886 55.917 30.741 51.099 30.683 49.241 C 30.625 47.935 30.683 46.687 30.683 45.41 L 44.528 45.41 L 44.528 45.41 Z  M 44.992 19.373 C 44.644 17.196 44.325 15.078 42.38 12.988 C 40.551 11.014 37.881 9.998 35.182 9.998 C 28.912 9.998 24.5 14.584 24.5 20.621 C 24.5 26.456 28.709 31.361 35.559 31.361 C 41.393 31.361 43.628 27.355 44.731 25.237 L 43.512 24.656 C 42.293 26.601 40.261 29.881 36.169 29.881 C 31.35 29.881 31.205 25.062 31.147 23.205 C 31.089 21.899 31.147 20.65 31.147 19.402 L 44.992 19.402 L 44.992 19.373 Z  M 1.25 1 L 66.936 1 L 66.936 36.615 L 58.983 36.615 L 58.983 37.863 L 60.492 37.863 C 60.87 37.863 62.176 37.805 62.176 38.676 C 62.176 39.111 61.508 40.765 61.305 41.23 L 57.88 49.647 L 52.829 37.863 L 55.355 37.863 L 55.355 36.615 L 43.512 36.615 L 43.512 37.863 L 45.979 37.863 L 54.832 57.136 C 54.832 57.136 53.526 60.358 52.829 62.216 L 52.742 62.448 C 52.394 63.231 52.075 63.899 51.581 63.899 C 51.378 63.899 51.146 63.696 51.001 63.522 C 50.798 63.289 50.711 62.999 50.565 62.738 C 50.188 62.157 49.462 61.577 48.33 61.577 C 46.502 61.577 45.631 63.173 45.631 64.421 C 45.631 65.321 46.037 66.105 46.676 66.656 L 1.25 66.656 L 1.25 37.863 L 3.515 37.863 L 12.658 57.629 L 13.964 57.629 L 20.582 41.259 C 22.091 38.066 22.12 37.863 23.833 37.863 L 25.139 37.863 L 25.139 36.615 L 16.46 36.615 L 16.46 37.863 L 18.782 37.863 C 19.159 37.863 20.03 37.805 20.03 38.647 C 20.03 38.937 19.827 39.314 19.508 40.243 L 15.444 50.402 L 9.842 37.863 L 13.035 37.863 L 13.035 36.615 L 1.25 36.615 L 1.25 11.856 L 3.427 11.856 L 12.571 31.593 L 13.877 31.593 L 20.495 15.223 C 22.004 12.03 22.033 11.827 23.746 11.827 L 25.052 11.827 L 25.052 10.579 L 16.402 10.579 L 16.402 11.827 L 18.724 11.827 C 19.101 11.827 19.972 11.769 19.972 12.61 C 19.972 12.901 19.769 13.278 19.45 14.207 L 15.386 24.366 L 9.784 11.827 L 12.977 11.827 L 12.977 10.579 L 1.25 10.579 L 1.25 1 L 1.25 1 Z  M 30.828 41.375 C 31.031 39.43 31.321 37.108 34.688 37.108 C 37.823 37.108 37.968 39.488 38.113 41.172 L 38.113 43.987 L 30.77 43.987 L 30.828 41.375 L 30.828 41.375 Z  M 31.321 15.368 C 31.524 13.423 31.815 11.101 35.182 11.101 C 38.317 11.101 38.462 13.481 38.607 15.165 L 38.607 17.98 L 31.263 17.98 L 31.321 15.368 L 31.321 15.368 Z  M 66.936 37.863 L 66.936 66.685 L 51.436 66.685 C 52.887 65.612 53.787 63.551 54.658 61.374 L 63.279 40.156 C 63.946 38.356 64.527 37.921 66.326 37.892 L 66.936 37.892 L 66.936 37.863 Z " fill="rgb(0,0,0)"/><g><path d=" M 26.184 72.491 L 26.735 72.491 L 27.867 68.166 L 27.345 68.166 L 26.474 71.939 L 26.445 71.939 L 25.487 68.166 L 24.965 68.166 L 26.184 72.491 L 26.184 72.491 Z " fill="rgb(0,0,0)"/><path d=" M 28.854 72.491 L 29.348 72.491 L 29.348 68.166 L 28.854 68.166 L 28.854 72.491 L 28.854 72.491 Z " fill-rule="evenodd" fill="rgb(0,0,0)"/><path d=" M 31.002 72.491 L 31.495 72.491 L 31.495 66.656 L 31.002 66.656 L 31.002 72.491 L 31.002 72.491 Z " fill="rgb(0,0,0)"/><path d=" M 33.15 72.491 L 33.614 72.491 L 33.614 66.656 L 33.15 66.656 L 33.15 72.491 L 33.15 72.491 Z " fill="rgb(0,0,0)"/><path d=" M 37.417 71.039 C 37.33 71.794 37.01 72.171 36.517 72.171 C 36.023 72.171 35.588 71.794 35.588 70.546 L 35.588 70.343 L 37.939 70.343 L 37.939 70.169 C 37.939 68.717 37.504 68.079 36.546 68.079 C 35.588 68.079 35.066 68.833 35.066 70.343 C 35.066 71.968 35.617 72.607 36.517 72.607 C 37.33 72.607 37.823 71.997 37.91 71.068 L 37.417 71.068 L 37.417 71.039 Z  M 35.588 69.936 C 35.617 68.862 35.907 68.456 36.517 68.456 C 37.126 68.456 37.417 68.833 37.446 69.936 L 35.588 69.936 L 35.588 69.936 Z " fill-rule="evenodd" fill="rgb(0,0,0)"/><path d=" M 43.309 72.491 L 43.744 72.491 L 43.744 66.685 L 43.251 66.685 L 43.251 68.833 L 43.222 68.833 C 43.106 68.369 42.757 68.079 42.206 68.079 C 41.248 68.079 40.813 68.833 40.813 70.343 C 40.813 71.852 41.248 72.607 42.206 72.607 C 42.728 72.607 43.135 72.287 43.251 71.794 L 43.28 71.794 L 43.28 72.491 L 43.309 72.491 Z  M 41.364 70.314 C 41.364 68.717 41.829 68.456 42.322 68.456 C 42.816 68.456 43.28 68.717 43.28 70.314 C 43.28 71.91 42.845 72.171 42.322 72.171 C 41.829 72.171 41.364 71.91 41.364 70.314 L 41.364 70.314 Z " fill-rule="evenodd" fill="rgb(0,0,0)"/><path d=" M 46.995 72.491 L 47.489 72.491 L 47.489 68.166 L 46.995 68.166 L 46.995 72.491 L 46.995 72.491 Z " fill-rule="evenodd" fill="rgb(0,0,0)"/><path d=" M 49.288 72.491 L 49.782 72.491 L 49.782 69.588 C 49.782 68.92 50.159 68.485 50.652 68.485 C 51.088 68.485 51.32 68.746 51.32 69.269 L 51.32 72.491 L 51.814 72.491 L 51.814 69.588 C 51.814 68.92 52.191 68.485 52.684 68.485 C 53.12 68.485 53.352 68.746 53.352 69.269 L 53.352 72.491 L 53.845 72.491 L 53.845 69.182 C 53.845 68.398 53.439 68.05 52.829 68.05 C 52.278 68.05 51.93 68.34 51.726 68.804 L 51.755 68.804 C 51.697 68.369 51.378 68.05 50.856 68.05 C 50.362 68.05 49.985 68.282 49.753 68.746 L 49.724 68.746 L 49.724 68.137 L 49.288 68.137 L 49.288 72.491 L 49.288 72.491 Z " fill="rgb(0,0,0)"/><path d=" M 56.051 69.443 C 56.051 68.804 56.313 68.456 56.893 68.456 C 57.328 68.456 57.648 68.659 57.648 69.211 C 57.648 69.704 57.561 69.791 57.241 69.907 L 56.313 70.169 C 55.703 70.343 55.442 70.807 55.442 71.359 C 55.442 72.113 55.79 72.578 56.545 72.578 C 57.038 72.578 57.474 72.404 57.648 71.852 L 57.677 71.852 L 57.677 71.997 C 57.677 72.433 57.909 72.549 58.315 72.549 C 58.373 72.549 58.46 72.52 58.548 72.491 L 58.548 72.113 L 58.402 72.113 C 58.228 72.113 58.141 71.997 58.141 71.765 L 58.141 69.211 C 58.141 68.514 57.822 68.05 56.922 68.05 C 56.022 68.05 55.587 68.543 55.587 69.443 L 56.051 69.443 L 56.051 69.443 Z  M 57.619 70.952 C 57.619 71.736 57.212 72.171 56.603 72.171 C 56.167 72.171 55.906 71.823 55.906 71.33 C 55.906 70.807 56.167 70.575 56.661 70.43 L 57.067 70.314 C 57.27 70.256 57.532 70.169 57.59 70.023 L 57.619 70.023 L 57.619 70.952 L 57.619 70.952 Z " fill-rule="evenodd" fill="rgb(0,0,0)"/><path d=" M 62.176 68.833 L 62.176 68.833 C 62.002 68.34 61.624 68.079 61.16 68.079 C 60.202 68.079 59.767 68.833 59.767 70.343 C 59.767 72.084 60.434 72.52 61.102 72.52 C 61.537 72.52 61.944 72.287 62.118 71.736 L 62.147 71.736 L 62.147 72.404 C 62.147 73.158 61.827 73.594 61.247 73.594 C 60.812 73.594 60.434 73.361 60.434 72.955 L 59.941 72.955 C 59.941 73.565 60.376 74 61.218 74 C 62.205 74 62.64 73.39 62.64 72.2 L 62.64 68.195 L 62.205 68.195 L 62.205 68.833 L 62.176 68.833 Z  M 60.289 70.256 C 60.289 68.891 60.637 68.456 61.218 68.456 C 61.798 68.456 62.147 68.891 62.147 70.256 C 62.147 71.649 61.798 72.055 61.218 72.055 C 60.637 72.084 60.289 71.649 60.289 70.256 L 60.289 70.256 Z " fill-rule="evenodd" fill="rgb(0,0,0)"/><path d=" M 66.443 71.039 C 66.355 71.794 66.036 72.171 65.543 72.171 C 65.049 72.171 64.614 71.794 64.614 70.546 L 64.614 70.343 L 66.965 70.343 L 66.965 70.169 C 66.965 68.717 66.53 68.079 65.572 68.079 C 64.614 68.079 64.091 68.833 64.091 70.343 C 64.091 71.968 64.643 72.607 65.543 72.607 C 66.355 72.607 66.849 71.997 66.936 71.068 L 66.443 71.068 L 66.443 71.039 Z  M 64.614 69.936 C 64.643 68.862 64.933 68.456 65.543 68.456 C 66.152 68.456 66.443 68.833 66.472 69.936 L 64.614 69.936 L 64.614 69.936 Z " fill-rule="evenodd" fill="rgb(0,0,0)"/><path d=" M 70.013 70.604 C 70.448 70.778 70.593 71.01 70.593 71.388 C 70.593 71.881 70.274 72.171 69.751 72.171 C 69.2 72.171 68.91 71.852 68.91 71.214 L 68.91 71.097 L 68.416 71.097 L 68.416 71.243 C 68.416 72.229 68.852 72.578 69.751 72.578 C 70.651 72.578 71.087 72.026 71.087 71.301 C 71.087 70.836 70.854 70.43 70.274 70.198 L 69.577 69.936 C 69.084 69.733 68.997 69.501 68.997 69.211 C 68.997 68.775 69.229 68.485 69.781 68.485 C 70.216 68.485 70.477 68.717 70.477 69.298 L 70.477 69.414 L 70.971 69.414 L 70.971 69.298 C 70.971 68.514 70.593 68.108 69.781 68.108 C 69.055 68.108 68.503 68.456 68.503 69.356 C 68.503 69.791 68.736 70.14 69.345 70.372 L 70.013 70.604 L 70.013 70.604 Z " fill="rgb(0,0,0)"/><path d=" M 45.08 66.54 L 45.08 68.95 L 45.573 68.95 C 45.573 68.95 45.573 66.54 45.602 66.54 L 45.08 66.54 L 45.08 66.54 Z " fill="rgb(0,0,0)"/></g></g></svg>