<?xml version="1.0" encoding="UTF-8" standalone="no"?><!-- Generator: Gravit.io --><svg xmlns="http://www.w3.org/2000/svg" xmlns:xlink="http://www.w3.org/1999/xlink" style="isolation:isolate" viewBox="0 0 290 75" width="290pt" height="75pt"><g><g><path d=" M 3.687 17.14 C 3.959 16.731 4.313 16.622 4.803 16.622 C 17.004 16.649 29.233 16.622 41.434 16.622 C 42.769 16.622 42.878 16.677 42.878 18.011 C 42.85 20.435 42.741 22.832 42.66 25.256 C 42.632 26.018 42.551 26.781 42.524 27.543 C 42.197 35.578 39.664 42.849 35.197 49.495 C 32.283 53.825 28.77 57.692 25.039 61.315 C 23.84 62.459 22.805 62.486 21.634 61.342 C 16.977 56.821 12.674 52 9.488 46.308 C 7.282 42.386 5.62 38.219 4.885 33.78 C 4.531 31.683 4.313 29.586 4.122 27.462 C 3.959 25.691 3.932 23.921 3.85 22.151 C 3.85 22.015 3.768 21.906 3.714 21.77 C 3.687 20.217 3.687 18.665 3.687 17.14 Z  M 5.212 18.038 C 5.212 19.4 5.157 20.707 5.212 21.988 C 5.321 24.33 5.402 26.672 5.62 29.014 C 5.811 30.921 6.192 32.827 6.437 34.733 C 6.519 35.333 6.764 35.442 7.309 35.442 C 15.316 35.414 23.35 35.442 31.357 35.442 C 34.026 35.442 36.695 35.442 39.364 35.442 C 39.8 35.442 40.018 35.36 40.072 34.87 C 40.372 32.691 40.808 30.512 41.026 28.333 C 41.243 26.345 41.216 24.33 41.325 22.314 C 41.352 21.797 41.407 21.307 41.434 20.789 C 41.461 19.89 41.434 18.964 41.434 18.038 C 29.315 18.038 17.277 18.038 5.212 18.038 Z  M 7.091 36.831 C 7.036 36.885 7.009 36.939 6.955 36.994 C 12.592 44.783 18.257 52.545 23.949 60.361 C 24.412 59.898 24.848 59.517 25.257 59.136 C 22.07 54.778 18.965 50.475 15.833 46.172 C 13.655 43.203 11.476 40.208 9.324 37.239 C 9.188 37.076 8.997 36.858 8.807 36.858 C 8.235 36.803 7.663 36.831 7.091 36.831 Z  M 25.829 58.319 C 26.264 57.91 26.673 57.502 27.136 57.093 C 24.494 53.471 21.852 49.822 19.183 46.172 C 17.059 43.231 14.907 40.289 12.783 37.375 C 12.62 37.157 12.402 36.912 12.184 36.885 C 11.585 36.831 10.958 36.858 10.223 36.858 C 15.452 44.075 20.654 51.238 25.829 58.319 Z  M 13.546 36.831 C 18.339 43.421 23.051 49.903 27.789 56.412 C 28.116 56.086 28.361 55.786 28.661 55.541 C 28.988 55.241 28.961 54.996 28.688 54.642 C 27.109 52.518 25.556 50.366 24.004 48.215 C 21.335 44.538 18.666 40.889 15.997 37.239 C 15.888 37.076 15.697 36.885 15.534 36.885 C 14.907 36.803 14.308 36.831 13.546 36.831 Z  M 16.895 36.831 C 21.199 42.74 25.42 48.542 29.641 54.37 C 30.05 53.852 30.431 53.389 30.785 52.926 C 29.396 51.02 28.035 49.141 26.673 47.289 C 24.222 43.912 21.771 40.562 19.292 37.185 C 19.183 37.021 18.993 36.831 18.829 36.831 C 18.284 36.803 17.658 36.831 16.895 36.831 Z  M 20.273 36.831 C 24.031 42.005 27.735 47.071 31.439 52.191 C 31.847 51.646 32.201 51.183 32.556 50.72 C 31.684 49.549 30.867 48.433 30.05 47.289 C 27.599 43.912 25.148 40.562 22.697 37.185 C 22.588 37.021 22.397 36.831 22.234 36.831 C 21.634 36.803 21.008 36.831 20.273 36.831 Z  M 23.704 36.939 C 26.836 41.243 29.968 45.573 33.155 49.93 C 33.427 49.549 33.618 49.222 33.863 48.923 C 34.19 48.569 34.162 48.269 33.863 47.888 C 31.521 44.729 29.178 41.569 26.945 38.328 C 26.101 37.076 25.229 36.504 23.704 36.939 Z  M 22.397 60.144 C 22.424 60.116 22.479 60.062 22.506 60.035 C 17.849 53.634 13.192 47.234 8.534 40.834 C 11.503 48.487 16.705 54.506 22.397 60.144 Z  M 27 36.831 C 29.614 40.426 32.174 43.939 34.762 47.507 C 35.061 47.044 35.334 46.662 35.497 46.281 C 35.579 46.063 35.606 45.682 35.47 45.491 C 33.454 42.686 31.412 39.881 29.369 37.103 C 29.26 36.967 29.069 36.858 28.906 36.831 C 28.307 36.831 27.708 36.831 27 36.831 Z  M 36.259 44.974 C 36.477 44.565 36.614 44.184 36.859 43.857 C 37.158 43.394 37.077 43.04 36.75 42.604 C 35.415 40.834 34.108 39.009 32.801 37.212 C 32.692 37.076 32.528 36.858 32.392 36.858 C 31.738 36.831 31.085 36.831 30.35 36.831 C 32.365 39.608 34.299 42.277 36.259 44.974 Z  M 33.781 36.939 C 35.034 38.682 36.314 40.398 37.567 42.169 C 38.547 40.589 38.547 40.534 37.567 39.173 C 37.349 38.873 37.104 38.601 36.94 38.274 C 36.341 36.885 35.252 36.558 33.781 36.939 Z  M 37.077 36.858 C 37.703 37.675 38.248 38.41 38.847 39.254 C 39.119 38.383 39.364 37.648 39.582 36.858 C 38.711 36.858 37.948 36.858 37.077 36.858 Z " fill="rgb(0,0,0)"/><path d=" M 112.435 13 C 112.572 13.354 112.789 13.735 112.789 14.089 C 112.817 18.284 112.817 22.451 112.789 26.645 C 112.789 26.971 112.708 27.353 112.517 27.598 C 112.081 28.088 111.455 27.789 111.21 26.971 C 110.066 27.952 108.704 28.17 107.288 27.789 C 105.654 27.353 104.864 26.1 104.592 24.548 C 104.347 23.104 104.319 21.661 104.673 20.244 C 105.409 17.221 108.595 16.105 111.046 18.011 C 111.074 18.038 111.128 18.038 111.264 18.12 C 111.264 17.167 111.264 16.268 111.264 15.369 C 111.264 14.906 111.21 14.416 111.292 13.953 C 111.346 13.654 111.537 13.354 111.673 13.054 C 111.918 13 112.19 13 112.435 13 Z  M 105.899 22.233 C 105.981 23.159 106.008 23.812 106.117 24.439 C 106.389 25.8 107.288 26.454 108.813 26.427 C 109.984 26.4 111.019 25.664 111.101 24.52 C 111.21 23.186 111.21 21.851 111.101 20.517 C 111.019 19.455 110.066 18.692 108.977 18.556 C 107.833 18.42 106.716 18.937 106.362 19.972 C 106.09 20.762 106.008 21.633 105.899 22.233 Z " fill="rgb(0,0,0)"/><path d=" M 147.65 58.591 C 146.261 60.525 144.436 61.669 142.176 62.132 C 138.772 62.813 135.503 62.595 132.616 60.443 C 130.601 58.945 129.457 56.848 128.804 54.451 C 127.959 51.347 127.905 48.16 128.068 44.974 C 128.204 42.441 128.613 39.908 129.839 37.62 C 131.445 34.624 133.924 32.881 137.301 32.446 C 139.616 32.146 141.904 32.31 144.082 33.236 C 145.553 33.862 146.697 34.87 147.65 36.395 C 147.65 35.986 147.65 35.768 147.65 35.523 C 147.65 31.111 147.65 26.726 147.65 22.314 C 147.65 21.688 147.759 21.089 148.358 20.68 C 148.957 20.299 149.584 20.326 150.183 20.571 C 150.782 20.816 151 21.361 151 22.042 C 151 34.788 151 47.534 151 60.28 C 151 61.396 150.483 61.996 149.475 62.023 C 148.385 62.05 147.705 61.424 147.65 60.334 C 147.65 59.79 147.65 59.19 147.65 58.591 Z  M 147.786 47.343 C 147.623 45.518 147.514 43.694 147.242 41.869 C 146.833 39.145 145.444 37.076 142.775 36.095 C 141.386 35.578 139.943 35.442 138.445 35.632 C 135.612 36.013 133.624 37.43 132.508 40.071 C 131.799 41.706 131.554 43.449 131.527 45.219 C 131.5 47.724 131.364 50.257 131.908 52.736 C 132.48 55.323 133.733 57.42 136.266 58.509 C 137.954 59.245 139.698 59.272 141.468 58.945 C 144.327 58.428 146.179 56.712 146.969 53.961 C 147.623 51.837 147.705 49.604 147.786 47.343 Z " fill="rgb(0,0,0)"/><path d=" M 91.165 58.755 C 89.667 60.389 87.951 61.533 85.854 61.996 C 82.259 62.785 78.746 62.758 75.505 60.688 C 73.299 59.272 72.237 57.202 72.046 54.615 C 71.91 52.899 72.128 51.265 72.918 49.74 C 74.089 47.479 76.131 46.281 78.528 45.764 C 80.026 45.437 81.551 45.301 83.076 45.246 C 85.555 45.164 88.06 45.219 90.648 45.219 C 90.648 44.484 90.702 43.775 90.648 43.095 C 90.566 41.923 90.511 40.752 90.239 39.636 C 89.585 37.103 87.788 36.041 85.418 35.714 C 82.259 35.251 79.291 35.823 76.513 37.457 C 75.342 38.138 74.061 37.593 73.953 36.34 C 73.898 35.578 74.225 35.006 74.824 34.624 C 76.431 33.535 78.228 32.881 80.162 32.636 C 81.633 32.446 83.158 32.337 84.629 32.391 C 86.78 32.473 88.877 32.909 90.675 34.27 C 92.336 35.496 93.235 37.185 93.589 39.145 C 93.834 40.534 93.943 41.978 93.97 43.394 C 94.025 47.316 93.97 51.238 94.025 55.187 C 94.025 55.868 94.243 56.576 94.515 57.202 C 94.842 58.019 95.305 58.755 95.686 59.544 C 96.176 60.552 95.958 61.424 95.141 61.887 C 94.215 62.404 93.262 62.159 92.636 61.206 C 92.363 60.824 92.145 60.389 91.9 60.007 C 91.682 59.599 91.437 59.218 91.165 58.755 Z  M 86.263 48.296 C 86.263 48.242 86.263 48.187 86.263 48.133 C 84.084 48.324 81.878 48.378 79.699 48.705 C 77.738 49.004 76.159 50.012 75.641 52.082 C 75.478 52.763 75.45 53.525 75.45 54.234 C 75.478 55.977 76.24 57.338 77.793 58.21 C 78.8 58.782 79.917 59 81.088 59.136 C 83.403 59.381 85.609 59.136 87.652 58.019 C 89.422 57.066 90.511 55.568 90.648 53.553 C 90.756 52 90.675 50.421 90.675 48.841 C 90.675 48.378 90.511 48.242 90.076 48.242 C 88.796 48.324 87.516 48.296 86.263 48.296 Z " fill="rgb(0,0,0)"/><path d=" M 119.544 58.401 C 118.509 59.898 117.338 60.961 115.813 61.56 C 113.879 62.35 111.891 62.595 109.821 62.377 C 107.996 62.186 106.308 61.669 104.837 60.607 C 103.012 59.272 101.977 57.393 101.514 55.214 C 101.242 53.934 101.133 52.6 101.106 51.292 C 101.051 45.709 101.078 40.126 101.078 34.543 C 101.078 33.154 101.868 32.5 103.23 32.718 C 103.965 32.827 104.428 33.481 104.428 34.379 C 104.428 38.111 104.428 41.842 104.428 45.573 C 104.428 47.452 104.319 49.304 104.456 51.183 C 104.565 52.572 104.782 53.988 105.245 55.296 C 106.09 57.665 108.023 58.864 110.475 59.109 C 112.49 59.327 114.451 59.109 116.194 57.938 C 118.1 56.63 119.108 54.806 119.38 52.572 C 119.516 51.483 119.516 50.393 119.516 49.304 C 119.516 44.375 119.516 39.445 119.516 34.488 C 119.516 33.29 120.061 32.718 121.205 32.718 C 122.322 32.718 122.866 33.317 122.866 34.516 C 122.866 43.095 122.866 51.674 122.866 60.253 C 122.866 61.424 122.267 62.077 121.205 62.077 C 120.143 62.077 119.516 61.424 119.516 60.28 C 119.544 59.708 119.544 59.136 119.544 58.401 Z " fill="rgb(0,0,0)"/><path d=" M 58.837 56.44 C 60.934 50.856 63.004 45.328 65.101 39.826 C 65.837 37.865 66.572 35.905 67.307 33.944 C 67.634 33.072 68.152 32.718 68.969 32.718 C 70.167 32.718 70.957 33.671 70.548 34.815 C 69.84 36.858 69.05 38.873 68.26 40.889 C 65.782 47.343 63.304 53.798 60.798 60.225 C 60.526 60.906 60.281 61.587 59.518 61.914 C 58.429 62.377 57.339 61.968 56.822 60.797 C 56.25 59.463 55.76 58.074 55.215 56.712 C 52.491 49.631 49.741 42.55 47.017 35.469 C 46.772 34.815 46.554 34.161 46.936 33.508 C 47.29 32.881 47.834 32.664 48.57 32.691 C 49.251 32.745 49.714 33.045 49.959 33.644 C 50.394 34.706 50.803 35.768 51.239 36.831 C 53.69 43.258 56.168 49.713 58.619 56.14 C 58.674 56.249 58.755 56.303 58.837 56.44 Z " fill="rgb(0,0,0)"/><path d=" M 61.996 26.781 C 60.607 27.979 59.028 28.197 57.312 27.68 C 55.841 27.217 55.133 26.182 55.188 24.629 C 55.242 23.022 56.086 22.069 57.639 21.797 C 58.674 21.606 59.763 21.688 60.825 21.633 C 61.098 21.633 61.37 21.633 61.833 21.633 C 61.697 20.898 61.67 20.19 61.425 19.564 C 61.152 18.801 60.417 18.583 59.654 18.529 C 58.728 18.447 57.884 18.665 57.094 19.128 C 56.658 19.373 56.277 19.4 55.978 18.964 C 55.705 18.61 55.896 18.066 56.413 17.793 C 57.993 16.976 59.627 16.84 61.288 17.412 C 62.677 17.902 63.113 19.128 63.14 20.462 C 63.195 21.824 63.113 23.213 63.168 24.575 C 63.195 25.147 63.331 25.746 63.576 26.291 C 63.903 27.08 63.93 27.434 63.44 27.68 C 62.786 27.979 62.514 27.543 62.242 27.08 C 62.16 26.999 62.078 26.89 61.996 26.781 Z  M 61.751 23.05 C 60.58 23.05 59.491 23.022 58.401 23.05 C 57.475 23.077 56.795 23.703 56.74 24.439 C 56.658 25.392 57.094 26.127 57.938 26.345 C 58.783 26.563 59.627 26.508 60.444 26.209 C 61.234 25.909 61.67 25.31 61.751 24.493 C 61.779 24.057 61.751 23.594 61.751 23.05 Z " fill="rgb(0,0,0)"/><path d=" M 116.112 23.05 C 116.058 24.575 116.548 25.637 117.528 26.154 C 118.645 26.726 120.306 26.508 121.26 25.664 C 121.94 25.065 122.294 24.983 122.621 25.365 C 122.948 25.719 122.757 26.263 122.186 26.781 C 120.442 28.333 117.229 28.36 115.758 26.699 C 115.132 25.991 114.75 25.174 114.696 24.302 C 114.614 22.832 114.424 21.361 114.887 19.918 C 115.513 17.902 117.256 16.867 119.489 17.14 C 121.341 17.385 122.73 18.91 122.894 20.816 C 122.921 21.198 123.003 21.579 123.003 21.96 C 123.03 22.777 122.785 23.022 121.94 23.022 C 120.225 23.022 118.509 23.022 116.793 23.022 C 116.575 23.05 116.33 23.05 116.112 23.05 Z  M 116.085 21.606 C 117.91 21.606 119.68 21.606 121.45 21.606 C 121.614 19.809 120.442 18.638 119.135 18.556 C 116.847 18.365 116.139 19.89 116.085 21.606 Z " fill="rgb(0,0,0)"/><path d=" M 89.286 22.532 C 89.286 23.867 89.095 25.147 88.36 26.318 C 87.597 27.516 85.582 28.115 84.384 27.87 C 82.014 27.353 80.816 25.991 80.734 23.513 C 80.707 22.423 80.761 21.279 80.979 20.217 C 81.442 18.011 82.995 17.004 85.5 17.14 C 87.298 17.221 88.796 18.638 89.068 20.571 C 89.177 21.225 89.204 21.879 89.286 22.532 Z  M 87.761 22.723 C 87.679 21.851 87.679 21.17 87.516 20.517 C 87.243 19.264 86.181 18.529 84.874 18.529 C 83.648 18.556 82.532 19.373 82.395 20.599 C 82.259 21.851 82.286 23.159 82.395 24.411 C 82.504 25.474 83.512 26.291 84.465 26.4 C 86.208 26.563 87.053 25.882 87.379 24.82 C 87.624 24.085 87.652 23.322 87.761 22.723 Z " fill="rgb(0,0,0)"/><path d=" M 67.062 18.147 C 68.206 17.085 69.541 16.949 70.957 17.276 C 72.4 17.603 73.462 18.937 73.462 20.435 C 73.462 22.614 73.462 24.765 73.462 26.944 C 73.462 27.434 73.326 27.843 72.781 27.816 C 72.264 27.816 72.019 27.489 72.019 26.917 C 72.046 25.038 72.073 23.131 72.019 21.252 C 71.992 20.244 71.801 19.237 70.684 18.774 C 68.805 18.011 67.008 19.21 67.008 21.225 C 67.008 23.104 67.008 24.956 67.008 26.835 C 67.008 27.462 66.735 27.843 66.272 27.816 C 65.673 27.789 65.483 27.353 65.483 26.835 C 65.483 23.948 65.483 21.034 65.483 18.147 C 65.483 17.712 65.619 17.303 66.191 17.249 C 66.817 17.194 67.008 17.575 67.062 18.147 Z " fill="rgb(0,0,0)"/><path d=" M 92.663 18.038 C 93.78 17.085 95.032 16.949 96.394 17.221 C 98.11 17.575 98.954 19.019 99.009 20.517 C 99.09 22.668 99.009 24.82 99.036 26.944 C 99.036 27.462 98.791 27.789 98.301 27.789 C 97.81 27.789 97.62 27.489 97.62 26.971 C 97.647 25.201 97.647 23.458 97.62 21.688 C 97.62 21.198 97.592 20.707 97.456 20.244 C 97.102 18.937 96.231 18.474 94.842 18.556 C 93.643 18.638 92.636 19.673 92.608 20.816 C 92.581 22.832 92.608 24.847 92.581 26.863 C 92.581 27.652 91.982 28.061 91.437 27.652 C 91.247 27.516 91.083 27.217 91.083 26.971 C 91.056 23.976 91.056 21.007 91.083 18.011 C 91.083 17.766 91.383 17.385 91.628 17.276 C 91.955 17.112 92.336 17.249 92.499 17.684 C 92.499 17.821 92.581 17.93 92.663 18.038 Z " fill="rgb(0,0,0)"/><path d=" M 48.025 22.696 C 48.107 23.268 48.188 23.976 48.352 24.684 C 48.869 26.835 51.838 26.863 52.791 25.637 C 53.336 24.956 53.717 24.874 54.098 25.201 C 54.452 25.528 54.371 26.1 53.826 26.645 C 52.655 27.87 51.184 28.17 49.605 27.761 C 48.188 27.407 47.235 26.481 46.854 25.011 C 46.418 23.268 46.391 21.525 46.881 19.809 C 47.807 16.649 51.811 16.432 53.635 18.147 C 53.799 18.311 53.935 18.501 54.071 18.692 C 54.343 19.073 54.425 19.509 53.989 19.809 C 53.554 20.108 53.172 19.945 52.9 19.564 C 52.437 18.91 51.783 18.583 50.994 18.529 C 49.441 18.447 48.379 19.318 48.161 20.871 C 48.134 21.443 48.079 21.988 48.025 22.696 Z " fill="rgb(0,0,0)"/><path d=" M 76.186 18.719 C 75.559 18.583 74.661 18.937 74.688 17.984 C 74.688 17.085 75.559 17.33 76.186 17.221 C 76.186 16.432 76.186 15.669 76.186 14.906 C 76.186 14.389 76.322 14.035 76.921 14.035 C 77.52 14.035 77.602 14.389 77.602 14.879 C 77.575 15.642 77.602 16.404 77.602 17.276 C 78.147 17.276 78.664 17.221 79.154 17.303 C 79.427 17.358 79.754 17.63 79.89 17.875 C 79.971 18.011 79.754 18.365 79.59 18.556 C 79.508 18.665 79.291 18.665 79.1 18.665 C 78.664 18.665 78.201 18.665 77.765 18.665 C 77.738 18.774 77.711 18.855 77.711 18.91 C 77.656 20.653 77.629 22.369 77.602 24.112 C 77.602 24.602 77.602 25.12 77.765 25.555 C 77.874 25.855 78.256 26.073 78.555 26.263 C 78.746 26.372 79.073 26.209 79.236 26.318 C 79.508 26.481 79.808 26.754 79.89 27.026 C 80.026 27.462 79.672 27.68 79.291 27.789 C 77.684 28.224 76.186 27.053 76.159 25.392 C 76.131 23.431 76.159 21.443 76.159 19.482 C 76.186 19.237 76.186 18.992 76.186 18.719 Z " fill="rgb(0,0,0)"/><path d=" M 19.837 22.777 C 20.055 23.022 20.218 23.54 19.891 24.112 C 19.592 24.657 19.047 24.711 18.502 24.711 C 16.923 24.711 17.113 24.874 17.113 23.349 C 17.113 22.614 17.141 21.879 17.113 21.17 C 17.086 20.707 17.277 20.544 17.713 20.599 C 18.012 20.626 18.312 20.626 18.611 20.599 C 19.102 20.571 19.646 20.599 19.81 21.116 C 19.946 21.552 19.837 22.069 19.837 22.777 Z  M 17.794 22.913 C 17.794 23.349 17.794 23.703 17.794 24.057 C 18.176 24.057 18.557 24.139 18.856 24.03 C 19.074 23.948 19.347 23.649 19.374 23.431 C 19.401 23.268 19.074 22.995 18.856 22.913 C 18.53 22.859 18.176 22.913 17.794 22.913 Z  M 17.767 22.423 C 18.312 22.287 18.775 22.178 19.21 21.988 C 19.265 21.96 19.265 21.47 19.183 21.416 C 18.747 21.225 18.284 21.143 17.767 20.98 C 17.767 21.525 17.767 21.851 17.767 22.423 Z " fill="rgb(0,0,0)"/><path d=" M 26.455 31.847 C 26.673 32.282 26.891 32.609 27.027 32.99 C 27.081 33.154 27 33.399 26.972 33.59 C 26.809 33.508 26.591 33.426 26.482 33.29 C 26.319 33.072 26.21 32.8 26.101 32.555 C 25.91 32.037 25.583 31.792 24.957 32.01 C 24.957 32.391 24.984 32.827 24.93 33.236 C 24.903 33.372 24.712 33.481 24.603 33.617 C 24.521 33.508 24.331 33.399 24.331 33.29 C 24.303 32.201 24.303 31.111 24.331 29.995 C 24.331 29.858 24.358 29.695 24.358 29.504 C 25.011 29.504 25.638 29.45 26.237 29.532 C 27.109 29.641 27.49 30.784 26.891 31.492 C 26.782 31.629 26.618 31.71 26.455 31.847 Z  M 24.984 31.465 C 25.556 31.275 26.019 31.138 26.455 30.921 C 26.509 30.893 26.482 30.376 26.428 30.349 C 25.992 30.185 25.502 30.131 25.011 29.995 C 24.984 30.566 24.984 30.893 24.984 31.465 Z " fill="rgb(0,0,0)"/><path d=" M 26.945 22.941 C 27.163 23.376 27.381 23.731 27.544 24.139 C 27.599 24.302 27.517 24.52 27.49 24.684 C 27.326 24.602 27.081 24.548 26.972 24.411 C 26.809 24.194 26.673 23.948 26.591 23.676 C 26.4 23.077 26.019 22.886 25.366 23.104 C 25.366 23.513 25.393 23.921 25.366 24.357 C 25.366 24.493 25.202 24.602 25.093 24.711 C 24.957 24.602 24.766 24.52 24.766 24.411 C 24.739 23.24 24.739 22.042 24.766 20.871 C 24.766 20.789 24.984 20.626 25.12 20.626 C 25.529 20.599 25.937 20.626 26.346 20.599 C 26.918 20.571 27.354 20.762 27.572 21.307 C 27.817 21.879 27.626 22.342 27.19 22.723 C 27.109 22.805 27.054 22.859 26.945 22.941 Z  M 25.393 22.396 C 25.747 22.396 26.128 22.478 26.428 22.369 C 26.673 22.287 26.972 22.015 27 21.797 C 27.027 21.606 26.727 21.279 26.482 21.198 C 26.155 21.089 25.774 21.116 25.393 21.089 C 25.393 21.579 25.393 21.96 25.393 22.396 Z " fill="rgb(0,0,0)"/><path d=" M 30.813 30.131 C 30.813 30.512 30.813 30.812 30.813 31.193 C 31.276 31.193 31.711 31.166 32.147 31.22 C 32.31 31.22 32.419 31.411 32.583 31.52 C 32.447 31.629 32.283 31.819 32.12 31.819 C 31.711 31.874 31.276 31.847 30.813 31.847 C 30.813 32.255 30.813 32.609 30.813 33.018 C 31.357 33.018 31.847 32.99 32.365 33.045 C 32.528 33.045 32.664 33.236 32.828 33.344 C 32.692 33.453 32.528 33.644 32.392 33.644 C 31.82 33.671 31.221 33.644 30.649 33.671 C 30.295 33.671 30.132 33.535 30.132 33.181 C 30.132 32.119 30.104 31.029 30.159 29.967 C 30.159 29.831 30.458 29.586 30.622 29.559 C 31.221 29.504 31.82 29.532 32.419 29.559 C 32.556 29.559 32.692 29.722 32.828 29.831 C 32.692 29.94 32.583 30.158 32.447 30.158 C 31.929 30.131 31.384 30.131 30.813 30.131 Z " fill="rgb(0,0,0)"/><path d=" M 14.499 31.928 C 14.499 32.364 14.526 32.745 14.472 33.127 C 14.444 33.29 14.226 33.453 14.09 33.59 C 13.981 33.426 13.763 33.29 13.763 33.127 C 13.736 32.037 13.736 30.948 13.763 29.858 C 13.763 29.722 14.009 29.504 14.145 29.477 C 14.662 29.423 15.18 29.423 15.697 29.477 C 16.296 29.532 16.732 30.131 16.705 30.757 C 16.678 31.411 16.215 31.874 15.588 31.901 C 15.261 31.955 14.907 31.928 14.499 31.928 Z  M 14.526 31.601 C 15.098 31.384 15.561 31.247 15.97 31.029 C 16.051 30.975 16.024 30.403 15.915 30.376 C 15.479 30.212 15.016 30.158 14.526 30.076 C 14.526 30.594 14.526 30.948 14.526 31.601 Z " fill="rgb(0,0,0)"/><path d=" M 34.952 20.789 C 34.816 20.898 34.68 21.089 34.516 21.089 C 33.999 21.116 33.454 21.116 32.882 21.116 C 32.882 21.525 32.882 21.851 32.882 22.287 C 33.264 22.287 33.672 22.26 34.053 22.314 C 34.244 22.342 34.435 22.532 34.625 22.641 C 34.435 22.75 34.244 22.913 34.026 22.941 C 33.672 22.995 33.291 22.941 32.882 22.941 C 32.882 23.322 32.882 23.676 32.882 24.112 C 33.373 24.112 33.89 24.085 34.38 24.139 C 34.544 24.166 34.707 24.33 34.898 24.439 C 34.734 24.548 34.598 24.738 34.435 24.738 C 33.89 24.765 33.318 24.738 32.746 24.765 C 32.365 24.765 32.201 24.602 32.201 24.221 C 32.201 23.186 32.174 22.151 32.229 21.143 C 32.229 20.98 32.501 20.707 32.664 20.68 C 33.4 20.626 34.108 20.653 34.843 20.653 C 34.871 20.68 34.925 20.735 34.952 20.789 Z " fill="rgb(0,0,0)"/><path d=" M 18.611 32.718 C 18.067 32.555 17.767 32.773 17.604 33.29 C 17.576 33.426 17.304 33.481 17.141 33.562 C 17.113 33.399 17.032 33.208 17.086 33.072 C 17.44 32.01 17.821 30.948 18.203 29.913 C 18.257 29.749 18.502 29.504 18.666 29.504 C 18.829 29.504 19.047 29.722 19.129 29.913 C 19.537 30.948 19.891 32.01 20.245 33.072 C 20.3 33.208 20.191 33.399 20.136 33.562 C 19.973 33.481 19.728 33.426 19.701 33.317 C 19.537 32.745 19.156 32.582 18.611 32.718 Z  M 18.666 30.512 C 18.448 31.111 18.284 31.547 18.121 32.037 C 18.502 32.037 18.829 32.037 19.21 32.037 C 19.02 31.547 18.856 31.111 18.666 30.512 Z " fill="rgb(0,0,0)"/><path d=" M 21.771 21.116 C 21.771 21.552 21.771 21.879 21.771 22.287 C 22.206 22.287 22.615 22.26 22.996 22.287 C 23.132 22.314 23.268 22.478 23.405 22.559 C 23.268 22.668 23.132 22.886 22.996 22.886 C 22.615 22.941 22.234 22.913 21.798 22.913 C 21.798 23.295 21.798 23.649 21.798 24.085 C 22.261 24.085 22.751 24.057 23.241 24.085 C 23.432 24.085 23.595 24.221 23.759 24.302 C 23.595 24.439 23.432 24.657 23.268 24.684 C 22.697 24.738 22.097 24.738 21.525 24.684 C 21.362 24.657 21.117 24.384 21.117 24.221 C 21.09 23.05 21.09 21.879 21.09 20.599 C 21.879 20.599 22.642 20.599 23.405 20.599 C 23.514 20.599 23.623 20.789 23.731 20.871 C 23.623 20.953 23.514 21.089 23.405 21.089 C 22.887 21.143 22.37 21.116 21.771 21.116 Z " fill="rgb(0,0,0)"/><path d=" M 30.241 21.116 C 30.241 22.124 30.268 23.077 30.213 24.003 C 30.213 24.248 29.968 24.466 29.859 24.711 C 29.723 24.466 29.505 24.248 29.505 24.003 C 29.451 23.077 29.478 22.124 29.478 21.116 C 29.151 21.116 28.879 21.143 28.606 21.116 C 28.498 21.089 28.416 20.953 28.307 20.871 C 28.416 20.789 28.498 20.626 28.606 20.626 C 29.451 20.599 30.268 20.599 31.112 20.626 C 31.194 20.626 31.303 20.789 31.384 20.871 C 31.276 20.953 31.194 21.089 31.085 21.089 C 30.867 21.143 30.595 21.116 30.241 21.116 Z " fill="rgb(0,0,0)"/><path d=" M 22.261 30.131 C 22.261 31.166 22.288 32.092 22.234 33.045 C 22.234 33.236 22.043 33.426 21.934 33.644 C 21.825 33.453 21.634 33.263 21.634 33.072 C 21.607 32.146 21.607 31.193 21.607 30.158 C 21.308 30.158 21.035 30.185 20.763 30.131 C 20.599 30.103 20.49 29.913 20.354 29.804 C 20.49 29.695 20.627 29.532 20.763 29.532 C 21.525 29.504 22.261 29.504 23.023 29.532 C 23.16 29.532 23.296 29.695 23.405 29.804 C 23.268 29.913 23.16 30.103 23.023 30.131 C 22.833 30.158 22.588 30.131 22.261 30.131 Z " fill="rgb(0,0,0)"/><path d=" M 12.32 24.085 C 12.892 24.085 13.382 24.057 13.872 24.112 C 14.063 24.139 14.226 24.302 14.39 24.411 C 14.226 24.52 14.09 24.684 13.927 24.711 C 13.382 24.738 12.81 24.711 12.266 24.738 C 11.884 24.738 11.721 24.548 11.721 24.194 C 11.721 23.159 11.694 22.124 11.748 21.116 C 11.748 20.925 11.993 20.735 12.129 20.571 C 12.211 20.762 12.347 20.953 12.347 21.17 C 12.347 22.069 12.32 23.022 12.32 24.085 Z " fill="rgb(0,0,0)"/><path d=" M 21.117 25.828 C 22.261 25.637 22.697 25.691 22.942 26.1 C 22.506 26.1 22.125 26.1 21.689 26.1 C 21.662 26.345 21.662 26.508 21.634 26.726 C 22.043 26.781 22.424 26.835 22.778 26.89 C 22.778 26.971 22.778 27.08 22.778 27.162 C 22.424 27.217 22.043 27.271 21.662 27.353 C 21.662 27.516 21.662 27.68 21.662 27.925 C 21.934 27.925 22.179 27.897 22.424 27.925 C 22.588 27.952 22.751 28.115 22.914 28.197 C 22.751 28.279 22.615 28.415 22.451 28.415 C 20.845 28.415 21.171 28.606 21.144 27.162 C 21.09 26.754 21.117 26.318 21.117 25.828 Z " fill="rgb(0,0,0)"/><path d=" M 15.289 22.587 C 15.289 22.042 15.261 21.47 15.289 20.925 C 15.289 20.789 15.479 20.653 15.561 20.517 C 15.67 20.653 15.888 20.789 15.888 20.925 C 15.915 22.069 15.915 23.186 15.888 24.33 C 15.888 24.466 15.67 24.602 15.561 24.738 C 15.452 24.575 15.261 24.439 15.261 24.275 C 15.289 23.703 15.289 23.159 15.289 22.587 Z " fill="rgb(0,0,0)"/><path d=" M 28.361 33.562 C 28.361 32.201 28.361 30.893 28.361 29.532 C 28.77 29.395 28.988 29.477 28.988 29.94 C 28.988 31.002 28.988 32.037 28.988 33.099 C 28.988 33.508 28.824 33.671 28.361 33.562 Z " fill="rgb(0,0,0)"/><path d=" M 24.385 28.442 C 24.385 27.68 24.385 26.944 24.385 26.236 C 24.004 26.154 23.731 26.1 23.35 26.018 C 23.977 25.664 25.229 25.691 25.638 26.073 C 25.366 26.127 25.12 26.154 24.875 26.209 C 24.685 26.944 25.039 27.761 24.657 28.469 C 24.576 28.442 24.494 28.442 24.385 28.442 Z " fill="rgb(0,0,0)"/><path d=" M 33.509 20.381 C 33.4 20.108 33.291 19.945 33.318 19.89 C 33.509 19.673 33.727 19.455 33.945 19.264 C 34.026 19.373 34.19 19.536 34.162 19.564 C 34.026 19.836 33.808 20.054 33.509 20.381 Z " fill="rgb(0,0,0)"/></g></g></svg>