<?xml version="1.0" encoding="UTF-8" standalone="no"?><!-- Generator: Gravit.io --><svg xmlns="http://www.w3.org/2000/svg" xmlns:xlink="http://www.w3.org/1999/xlink" style="isolation:isolate" viewBox="0 0 290 75" width="290pt" height="75pt"><g><g><g><g><g><path d=" M 40.363 20.61 C 40.282 20.61 40.179 20.61 40.121 20.644 C 39.936 20.748 39.706 21.002 39.603 21.197 C 39.579 21.243 39.579 21.324 39.579 21.404 L 39.579 22.015 L 40.443 22.015 L 40.443 22.615 L 39.579 22.615 L 39.579 26.969 L 38.957 26.969 L 38.957 22.615 L 38.14 22.615 L 38.14 22.015 L 38.957 22.015 L 38.957 21.382 C 38.957 21.151 39.003 20.944 39.119 20.771 C 39.211 20.644 39.476 20.334 39.637 20.218 C 39.822 20.081 40.098 20.011 40.352 20.011 L 41.089 20.011 L 41.089 20.61 L 40.363 20.61 L 40.363 20.61 Z " fill="rgb(0,0,0)"/><path d=" M 45.616 26.255 C 45.524 26.382 45.259 26.693 45.098 26.808 C 44.914 26.946 44.637 27.027 44.384 27.027 L 43.231 27.027 C 42.978 27.027 42.702 26.946 42.517 26.808 C 42.356 26.693 42.091 26.382 41.999 26.255 C 41.884 26.082 41.838 25.875 41.838 25.644 L 41.838 23.341 C 41.838 23.11 41.884 22.902 41.999 22.73 C 42.091 22.603 42.356 22.291 42.517 22.176 C 42.702 22.038 42.978 21.957 43.231 21.957 L 44.384 21.957 C 44.637 21.957 44.914 22.038 45.098 22.176 C 45.259 22.291 45.524 22.603 45.616 22.73 C 45.731 22.902 45.777 23.11 45.777 23.341 L 45.777 25.644 C 45.777 25.875 45.731 26.082 45.616 26.255 Z  M 45.155 23.363 C 45.155 23.282 45.155 23.214 45.132 23.168 C 45.028 22.971 44.764 22.707 44.579 22.603 C 44.522 22.568 44.452 22.557 44.372 22.557 L 43.243 22.557 C 43.162 22.557 43.093 22.568 43.036 22.603 C 42.851 22.707 42.598 22.971 42.494 23.168 C 42.471 23.214 42.459 23.282 42.459 23.363 L 42.459 25.621 C 42.459 25.702 42.471 25.77 42.494 25.817 C 42.598 26.013 42.851 26.277 43.036 26.382 C 43.093 26.416 43.162 26.428 43.243 26.428 L 44.372 26.428 C 44.452 26.428 44.522 26.416 44.579 26.382 C 44.764 26.277 45.028 26.013 45.132 25.817 C 45.155 25.77 45.155 25.702 45.155 25.621 L 45.155 23.363 Z " fill="rgb(0,0,0)"/><path d=" M 50.661 26.969 L 50.661 23.363 C 50.661 23.282 50.661 23.214 50.638 23.168 C 50.534 22.971 50.269 22.707 50.085 22.603 C 50.027 22.568 49.958 22.557 49.878 22.557 L 49.059 22.557 C 49.002 22.557 48.944 22.568 48.898 22.591 C 48.702 22.695 48.207 23.007 48.034 23.282 L 48.034 26.969 L 47.412 26.969 L 47.412 22.834 L 47.332 22.015 L 47.954 22.015 L 48.023 22.591 C 48.161 22.442 48.322 22.291 48.449 22.2 C 48.611 22.084 48.829 21.957 49.025 21.957 L 49.889 21.957 C 50.142 21.957 50.419 22.038 50.604 22.176 C 50.765 22.291 51.03 22.603 51.122 22.73 C 51.237 22.902 51.283 23.11 51.283 23.341 L 51.283 26.969 L 50.661 26.969 L 50.661 26.969 Z " fill="rgb(0,0,0)"/><path d=" M 53.564 22.176 C 53.749 22.038 54.002 21.957 54.267 21.957 L 55.166 21.957 C 55.362 21.957 55.569 22.073 55.742 22.2 C 55.88 22.303 56.029 22.442 56.19 22.615 L 56.19 20.057 L 56.813 20.057 L 56.813 26.151 L 56.882 26.969 L 56.26 26.969 L 56.19 26.358 C 56.041 26.531 55.88 26.681 55.742 26.784 C 55.569 26.911 55.362 27.027 55.166 27.027 L 54.267 27.027 C 54.002 27.027 53.749 26.946 53.564 26.808 C 53.415 26.681 53.138 26.382 53.046 26.255 C 52.93 26.082 52.873 25.875 52.873 25.644 L 52.873 23.341 C 52.873 23.098 52.93 22.902 53.046 22.73 C 53.138 22.603 53.415 22.303 53.564 22.176 Z  M 53.53 25.817 C 53.633 26.013 53.887 26.277 54.071 26.382 C 54.129 26.416 54.198 26.428 54.279 26.428 L 55.131 26.428 C 55.189 26.428 55.246 26.416 55.292 26.393 C 55.476 26.301 56.018 25.967 56.168 25.69 C 56.168 25.69 56.179 25.667 56.19 25.633 L 56.19 23.351 C 56.179 23.317 56.168 23.294 56.168 23.294 C 56.018 23.017 55.476 22.683 55.292 22.591 C 55.246 22.568 55.189 22.557 55.131 22.557 L 54.279 22.557 C 54.198 22.557 54.129 22.568 54.071 22.603 C 53.887 22.707 53.633 22.971 53.53 23.168 C 53.507 23.214 53.495 23.282 53.495 23.363 L 53.495 25.621 C 53.495 25.702 53.507 25.77 53.53 25.817 Z " fill="rgb(0,0,0)"/><path d=" M 61.674 26.969 L 61.605 26.393 C 61.467 26.543 61.294 26.693 61.167 26.784 C 60.994 26.911 60.799 27.027 60.603 27.027 L 59.589 27.027 C 59.324 27.027 59.07 26.946 58.886 26.808 C 58.736 26.681 58.471 26.393 58.379 26.267 C 58.264 26.094 58.207 25.887 58.207 25.656 L 58.207 25.425 C 58.207 25.183 58.264 24.988 58.379 24.815 C 58.471 24.688 58.736 24.4 58.886 24.274 C 59.07 24.135 59.324 24.055 59.589 24.055 L 61.593 24.055 L 61.593 23.351 C 61.593 23.26 61.582 23.202 61.57 23.168 C 61.467 22.971 61.202 22.707 61.017 22.603 C 60.96 22.568 60.89 22.557 60.81 22.557 L 59.727 22.557 C 59.646 22.557 59.589 22.568 59.531 22.603 C 59.347 22.707 59.105 22.983 58.979 23.178 L 58.379 22.983 C 58.414 22.925 58.471 22.822 58.552 22.718 C 58.656 22.568 58.909 22.291 59.07 22.165 C 59.255 22.027 59.497 21.957 59.762 21.957 L 60.822 21.957 C 61.086 21.957 61.351 22.038 61.536 22.176 C 61.709 22.281 61.962 22.591 62.054 22.718 C 62.181 22.891 62.216 23.11 62.216 23.341 L 62.216 26.151 L 62.296 26.969 L 61.674 26.969 L 61.674 26.969 Z  M 61.593 25.69 L 61.593 24.654 L 59.6 24.654 C 59.52 24.654 59.451 24.664 59.393 24.7 C 59.209 24.803 58.967 25.045 58.863 25.241 C 58.84 25.287 58.829 25.344 58.829 25.425 L 58.829 25.656 C 58.829 25.736 58.84 25.794 58.863 25.84 C 58.967 26.036 59.209 26.277 59.393 26.382 C 59.451 26.416 59.52 26.428 59.6 26.428 L 60.568 26.428 C 60.626 26.428 60.683 26.416 60.729 26.393 C 60.914 26.301 61.443 25.967 61.593 25.69 Z " fill="rgb(0,0,0)"/><path d=" M 64.945 22.615 L 64.945 25.563 C 64.945 25.644 64.957 25.736 64.98 25.782 C 65.084 25.978 65.314 26.22 65.498 26.323 C 65.556 26.358 65.648 26.37 65.728 26.37 L 66.454 26.37 L 66.454 26.969 L 65.717 26.969 C 65.464 26.969 65.198 26.888 65.014 26.75 C 64.853 26.635 64.588 26.323 64.496 26.197 C 64.381 26.024 64.323 25.817 64.323 25.587 L 64.323 22.615 L 63.505 22.615 L 63.505 22.015 L 64.323 22.015 L 64.323 20.057 L 64.945 20.057 L 64.945 22.015 L 66.466 22.015 L 66.466 22.615 L 64.945 22.615 L 64.945 22.615 Z " fill="rgb(0,0,0)"/><path d=" M 67.79 20.737 L 67.79 20 L 68.505 20 L 68.505 20.737 L 67.79 20.737 Z  M 67.836 26.969 L 67.836 22.015 L 68.459 22.015 L 68.459 26.969 L 67.836 26.969 Z " fill="rgb(0,0,0)"/><path d=" M 73.826 26.255 C 73.735 26.382 73.469 26.693 73.308 26.808 C 73.124 26.946 72.848 27.027 72.594 27.027 L 71.442 27.027 C 71.189 27.027 70.912 26.946 70.728 26.808 C 70.566 26.693 70.302 26.382 70.209 26.255 C 70.094 26.082 70.048 25.875 70.048 25.644 L 70.048 23.341 C 70.048 23.11 70.094 22.902 70.209 22.73 C 70.302 22.603 70.566 22.291 70.728 22.176 C 70.912 22.038 71.189 21.957 71.442 21.957 L 72.594 21.957 C 72.848 21.957 73.124 22.038 73.308 22.176 C 73.469 22.291 73.735 22.603 73.826 22.73 C 73.942 22.902 73.988 23.11 73.988 23.341 L 73.988 25.644 C 73.988 25.875 73.942 26.082 73.826 26.255 Z  M 73.366 23.363 C 73.366 23.282 73.366 23.214 73.343 23.168 C 73.239 22.971 72.974 22.707 72.79 22.603 C 72.732 22.568 72.663 22.557 72.582 22.557 L 71.453 22.557 C 71.373 22.557 71.304 22.568 71.246 22.603 C 71.062 22.707 70.809 22.971 70.705 23.168 C 70.682 23.214 70.67 23.282 70.67 23.363 L 70.67 25.621 C 70.67 25.702 70.682 25.77 70.705 25.817 C 70.809 26.013 71.062 26.277 71.246 26.382 C 71.304 26.416 71.373 26.428 71.453 26.428 L 72.582 26.428 C 72.663 26.428 72.732 26.416 72.79 26.382 C 72.974 26.277 73.239 26.013 73.343 25.817 C 73.366 25.77 73.366 25.702 73.366 25.621 L 73.366 23.363 Z " fill="rgb(0,0,0)"/><path d=" M 78.872 26.969 L 78.872 23.363 C 78.872 23.282 78.872 23.214 78.849 23.168 C 78.745 22.971 78.48 22.707 78.296 22.603 C 78.239 22.568 78.169 22.557 78.089 22.557 L 77.271 22.557 C 77.213 22.557 77.156 22.568 77.11 22.591 C 76.914 22.695 76.419 23.007 76.246 23.282 L 76.246 26.969 L 75.623 26.969 L 75.623 22.834 L 75.543 22.015 L 76.165 22.015 L 76.234 22.591 C 76.372 22.442 76.533 22.291 76.66 22.2 C 76.822 22.084 77.04 21.957 77.236 21.957 L 78.1 21.957 C 78.354 21.957 78.63 22.038 78.815 22.176 C 78.976 22.291 79.24 22.603 79.333 22.73 C 79.448 22.902 79.494 23.11 79.494 23.341 L 79.494 26.969 L 78.872 26.969 L 78.872 26.969 Z " fill="rgb(0,0,0)"/><path d=" M 87.42 26.301 C 87.327 26.428 87.109 26.693 86.947 26.808 C 86.763 26.946 86.486 27.027 86.244 27.027 L 84.862 27.027 C 84.62 27.027 84.344 26.946 84.159 26.808 C 83.998 26.693 83.745 26.393 83.653 26.267 C 83.595 26.174 83.514 26.058 83.491 26.001 L 84.09 25.794 C 84.183 25.989 84.447 26.277 84.632 26.382 C 84.689 26.416 84.759 26.428 84.839 26.428 L 86.233 26.428 C 86.314 26.428 86.371 26.416 86.429 26.382 C 86.613 26.277 86.832 26.058 86.936 25.863 C 86.959 25.817 86.97 25.748 86.97 25.667 L 86.97 25.253 C 86.97 25.022 86.774 24.849 86.533 24.827 L 84.632 24.688 C 84.067 24.642 83.63 24.204 83.63 23.64 L 83.63 23.294 C 83.63 23.063 83.687 22.856 83.802 22.683 C 83.894 22.557 84.113 22.291 84.274 22.176 C 84.459 22.038 84.736 21.957 84.977 21.957 L 86.176 21.957 C 86.417 21.957 86.694 22.038 86.878 22.176 C 87.039 22.291 87.304 22.603 87.396 22.73 C 87.466 22.822 87.535 22.925 87.558 22.983 L 86.959 23.19 C 86.867 22.995 86.59 22.707 86.406 22.603 C 86.348 22.568 86.29 22.557 86.21 22.557 L 84.989 22.557 C 84.909 22.557 84.839 22.568 84.782 22.603 C 84.597 22.707 84.39 22.914 84.286 23.11 C 84.263 23.156 84.252 23.225 84.252 23.305 L 84.252 23.651 C 84.252 23.882 84.447 24.055 84.689 24.077 L 86.59 24.227 C 87.154 24.274 87.592 24.711 87.592 25.276 L 87.592 25.69 C 87.592 25.921 87.535 26.128 87.42 26.301 Z " fill="rgb(0,0,0)"/><path d=" M 92.373 26.969 L 92.304 26.393 C 92.166 26.543 92.005 26.693 91.877 26.784 C 91.716 26.9 91.497 27.027 91.302 27.027 L 90.437 27.027 C 90.184 27.027 89.908 26.946 89.723 26.808 C 89.562 26.693 89.297 26.382 89.205 26.255 C 89.09 26.082 89.044 25.875 89.044 25.644 L 89.044 22.015 L 89.666 22.015 L 89.666 25.621 C 89.666 25.702 89.666 25.77 89.689 25.817 C 89.793 26.013 90.057 26.277 90.242 26.382 C 90.299 26.416 90.369 26.428 90.449 26.428 L 91.267 26.428 C 91.325 26.428 91.382 26.416 91.429 26.393 C 91.624 26.289 92.12 25.978 92.292 25.702 L 92.292 22.015 L 92.915 22.015 L 92.915 26.151 L 92.995 26.969 L 92.373 26.969 Z " fill="rgb(0,0,0)"/><path d=" M 94.608 20.737 L 94.608 20 L 95.322 20 L 95.322 20.737 L 94.608 20.737 Z  M 94.654 26.969 L 94.654 22.015 L 95.276 22.015 L 95.276 26.969 L 94.654 26.969 Z " fill="rgb(0,0,0)"/><path d=" M 100.633 26.301 C 100.54 26.428 100.321 26.693 100.16 26.808 C 99.975 26.946 99.699 27.027 99.457 27.027 L 98.076 27.027 C 97.833 27.027 97.557 26.946 97.373 26.808 C 97.211 26.693 96.958 26.393 96.866 26.267 C 96.809 26.174 96.727 26.058 96.705 26.001 L 97.304 25.794 C 97.396 25.989 97.66 26.277 97.845 26.382 C 97.903 26.416 97.972 26.428 98.052 26.428 L 99.446 26.428 C 99.527 26.428 99.585 26.416 99.641 26.382 C 99.826 26.277 100.045 26.058 100.148 25.863 C 100.172 25.817 100.184 25.748 100.184 25.667 L 100.184 25.253 C 100.184 25.022 99.987 24.849 99.746 24.827 L 97.845 24.688 C 97.28 24.642 96.842 24.204 96.842 23.64 L 96.842 23.294 C 96.842 23.063 96.9 22.856 97.015 22.683 C 97.107 22.557 97.326 22.291 97.487 22.176 C 97.672 22.038 97.948 21.957 98.19 21.957 L 99.388 21.957 C 99.63 21.957 99.907 22.038 100.091 22.176 C 100.252 22.291 100.518 22.603 100.61 22.73 C 100.679 22.822 100.747 22.925 100.771 22.983 L 100.172 23.19 C 100.08 22.995 99.802 22.707 99.619 22.603 C 99.561 22.568 99.504 22.557 99.424 22.557 L 98.201 22.557 C 98.121 22.557 98.052 22.568 97.995 22.603 C 97.811 22.707 97.602 22.914 97.499 23.11 C 97.477 23.156 97.465 23.225 97.465 23.305 L 97.465 23.651 C 97.465 23.882 97.66 24.055 97.903 24.077 L 99.802 24.227 C 100.367 24.274 100.806 24.711 100.806 25.276 L 100.806 25.69 C 100.806 25.921 100.747 26.128 100.633 26.301 Z " fill="rgb(0,0,0)"/><path d=" M 106.012 26.301 C 105.92 26.428 105.701 26.693 105.539 26.808 C 105.355 26.946 105.079 27.027 104.836 27.027 L 103.455 27.027 C 103.213 27.027 102.936 26.946 102.751 26.808 C 102.59 26.693 102.337 26.393 102.244 26.267 C 102.187 26.174 102.107 26.058 102.083 26.001 L 102.682 25.794 C 102.775 25.989 103.04 26.277 103.225 26.382 C 103.282 26.416 103.35 26.428 103.431 26.428 L 104.826 26.428 C 104.906 26.428 104.963 26.416 105.021 26.382 C 105.205 26.277 105.425 26.058 105.528 25.863 C 105.551 25.817 105.562 25.748 105.562 25.667 L 105.562 25.253 C 105.562 25.022 105.366 24.849 105.124 24.827 L 103.225 24.688 C 102.659 24.642 102.222 24.204 102.222 23.64 L 102.222 23.294 C 102.222 23.063 102.28 22.856 102.395 22.683 C 102.486 22.557 102.706 22.291 102.867 22.176 C 103.052 22.038 103.328 21.957 103.569 21.957 L 104.768 21.957 C 105.009 21.957 105.285 22.038 105.47 22.176 C 105.631 22.291 105.896 22.603 105.989 22.73 C 106.057 22.822 106.127 22.925 106.15 22.983 L 105.551 23.19 C 105.458 22.995 105.182 22.707 104.999 22.603 C 104.941 22.568 104.883 22.557 104.802 22.557 L 103.581 22.557 C 103.501 22.557 103.431 22.568 103.374 22.603 C 103.189 22.707 102.982 22.914 102.879 23.11 C 102.855 23.156 102.843 23.225 102.843 23.305 L 102.843 23.651 C 102.843 23.882 103.04 24.055 103.282 24.077 L 105.182 24.227 C 105.747 24.274 106.185 24.711 106.185 25.276 L 106.185 25.69 C 106.185 25.921 106.127 26.128 106.012 26.301 Z " fill="rgb(0,0,0)"/><path d=" M 111.034 25.794 L 111.644 26.001 C 111.599 26.094 111.552 26.162 111.483 26.255 C 111.391 26.382 111.126 26.693 110.965 26.808 C 110.781 26.946 110.516 27.027 110.262 27.027 L 109.088 27.027 C 108.834 27.027 108.558 26.946 108.374 26.808 C 108.213 26.693 107.947 26.382 107.855 26.255 C 107.739 26.082 107.682 25.875 107.682 25.644 L 107.682 23.341 C 107.682 23.11 107.739 22.902 107.855 22.73 C 107.947 22.603 108.213 22.291 108.374 22.176 C 108.558 22.038 108.834 21.957 109.088 21.957 L 110.24 21.957 C 110.493 21.957 110.769 22.038 110.954 22.176 C 111.115 22.291 111.38 22.603 111.471 22.73 C 111.587 22.902 111.634 23.11 111.634 23.341 L 111.634 24.769 L 108.305 24.769 L 108.305 25.621 C 108.305 25.702 108.315 25.77 108.338 25.817 C 108.442 26.013 108.696 26.277 108.88 26.382 C 108.937 26.416 108.995 26.428 109.076 26.428 L 110.285 26.428 C 110.365 26.428 110.435 26.416 110.493 26.382 C 110.678 26.277 110.931 25.989 111.023 25.817 L 111.034 25.794 Z  M 108.305 23.363 L 108.305 24.17 L 111.012 24.17 L 111.012 23.363 C 111.012 23.282 111.012 23.214 110.988 23.168 C 110.884 22.971 110.619 22.707 110.435 22.603 C 110.377 22.568 110.308 22.557 110.228 22.557 L 109.088 22.557 C 109.007 22.557 108.949 22.568 108.892 22.603 C 108.707 22.707 108.442 22.971 108.338 23.168 C 108.315 23.214 108.305 23.282 108.305 23.363 Z " fill="rgb(0,0,0)"/><path d=" M 119.075 26.854 C 118.891 26.991 118.626 27.073 118.373 27.073 L 117.474 27.073 C 117.278 27.073 117.059 26.946 116.897 26.83 C 116.76 26.727 116.599 26.577 116.448 26.416 L 116.448 28.904 L 115.827 28.904 L 115.827 22.834 L 115.758 22.015 L 116.38 22.015 L 116.448 22.626 C 116.599 22.464 116.76 22.303 116.897 22.2 C 117.059 22.084 117.278 21.957 117.474 21.957 L 118.373 21.957 C 118.626 21.957 118.891 22.038 119.075 22.176 C 119.237 22.291 119.501 22.603 119.594 22.73 C 119.709 22.902 119.767 23.11 119.767 23.341 L 119.767 25.69 C 119.767 25.921 119.709 26.128 119.594 26.301 C 119.501 26.428 119.237 26.738 119.075 26.854 Z  M 119.109 23.168 C 119.006 22.971 118.753 22.707 118.568 22.603 C 118.51 22.568 118.441 22.557 118.361 22.557 L 117.508 22.557 C 117.451 22.557 117.393 22.568 117.347 22.591 C 117.151 22.695 116.633 23.017 116.471 23.294 C 116.46 23.317 116.448 23.341 116.448 23.363 L 116.448 25.678 C 116.448 25.702 116.46 25.714 116.471 25.736 C 116.633 26.024 117.151 26.335 117.347 26.439 C 117.393 26.462 117.451 26.474 117.508 26.474 L 118.361 26.474 C 118.441 26.474 118.51 26.462 118.568 26.428 C 118.753 26.323 119.006 26.058 119.109 25.863 C 119.133 25.817 119.145 25.748 119.145 25.667 L 119.145 23.363 C 119.145 23.282 119.133 23.214 119.109 23.168 Z " fill="rgb(0,0,0)"/><path d=" M 125.042 26.255 C 124.95 26.382 124.684 26.693 124.523 26.808 C 124.34 26.946 124.064 27.027 123.811 27.027 L 122.657 27.027 C 122.404 27.027 122.128 26.946 121.944 26.808 C 121.782 26.693 121.518 26.382 121.426 26.255 C 121.31 26.082 121.265 25.875 121.265 25.644 L 121.265 23.341 C 121.265 23.11 121.31 22.902 121.426 22.73 C 121.518 22.603 121.782 22.291 121.944 22.176 C 122.128 22.038 122.404 21.957 122.657 21.957 L 123.811 21.957 C 124.064 21.957 124.34 22.038 124.523 22.176 C 124.684 22.291 124.95 22.603 125.042 22.73 C 125.158 22.902 125.203 23.11 125.203 23.341 L 125.203 25.644 C 125.203 25.875 125.158 26.082 125.042 26.255 Z  M 124.581 23.363 C 124.581 23.282 124.581 23.214 124.559 23.168 C 124.455 22.971 124.189 22.707 124.005 22.603 C 123.948 22.568 123.879 22.557 123.799 22.557 L 122.669 22.557 C 122.588 22.557 122.52 22.568 122.462 22.603 C 122.278 22.707 122.025 22.971 121.921 23.168 C 121.897 23.214 121.885 23.282 121.885 23.363 L 121.885 25.621 C 121.885 25.702 121.897 25.77 121.921 25.817 C 122.025 26.013 122.278 26.277 122.462 26.382 C 122.52 26.416 122.588 26.428 122.669 26.428 L 123.799 26.428 C 123.879 26.428 123.948 26.416 124.005 26.382 C 124.189 26.277 124.455 26.013 124.559 25.817 C 124.581 25.77 124.581 25.702 124.581 25.621 L 124.581 23.363 Z " fill="rgb(0,0,0)"/><path d=" M 130.042 26.969 L 129.973 26.393 C 129.834 26.543 129.673 26.693 129.547 26.784 C 129.386 26.9 129.165 27.027 128.971 27.027 L 128.107 27.027 C 127.853 27.027 127.576 26.946 127.391 26.808 C 127.23 26.693 126.965 26.382 126.874 26.255 C 126.759 26.082 126.712 25.875 126.712 25.644 L 126.712 22.015 L 127.335 22.015 L 127.335 25.621 C 127.335 25.702 127.335 25.77 127.358 25.817 C 127.461 26.013 127.725 26.277 127.91 26.382 C 127.968 26.416 128.038 26.428 128.118 26.428 L 128.936 26.428 C 128.994 26.428 129.052 26.416 129.097 26.393 C 129.293 26.289 129.788 25.978 129.961 25.702 L 129.961 22.015 L 130.584 22.015 L 130.584 26.151 L 130.664 26.969 L 130.042 26.969 Z " fill="rgb(0,0,0)"/><path d=" M 135.283 23.178 C 135.168 23.007 134.914 22.707 134.731 22.603 C 134.672 22.568 134.603 22.557 134.522 22.557 L 133.959 22.557 C 133.901 22.557 133.831 22.568 133.786 22.591 C 133.589 22.695 133.071 23.007 132.91 23.294 L 132.91 26.969 L 132.288 26.969 L 132.288 22.834 L 132.218 22.015 L 132.841 22.015 L 132.91 22.603 C 133.059 22.454 133.209 22.291 133.348 22.2 C 133.509 22.084 133.728 21.957 133.923 21.957 L 134.499 21.957 C 134.752 21.957 135.018 22.038 135.202 22.176 C 135.363 22.291 135.617 22.603 135.709 22.73 C 135.778 22.822 135.848 22.925 135.882 22.983 L 135.283 23.178 Z " fill="rgb(0,0,0)"/><path d=" M 139.349 26.969 C 139.326 26.773 139.245 26.52 139.245 26.323 L 139.245 20.057 L 139.868 20.057 L 139.868 26.185 C 139.868 26.439 139.948 26.715 139.972 26.969 L 139.349 26.969 L 139.349 26.969 Z " fill="rgb(0,0,0)"/><path d=" M 144.775 26.969 L 144.706 26.393 C 144.567 26.543 144.394 26.693 144.268 26.784 C 144.095 26.911 143.899 27.027 143.703 27.027 L 142.69 27.027 C 142.424 27.027 142.171 26.946 141.988 26.808 C 141.837 26.681 141.572 26.393 141.481 26.267 C 141.365 26.094 141.308 25.887 141.308 25.656 L 141.308 25.425 C 141.308 25.183 141.365 24.988 141.481 24.815 C 141.572 24.688 141.837 24.4 141.988 24.274 C 142.171 24.135 142.424 24.055 142.69 24.055 L 144.695 24.055 L 144.695 23.351 C 144.695 23.26 144.683 23.202 144.671 23.168 C 144.567 22.971 144.303 22.707 144.118 22.603 C 144.06 22.568 143.991 22.557 143.911 22.557 L 142.828 22.557 C 142.748 22.557 142.69 22.568 142.632 22.603 C 142.447 22.707 142.205 22.983 142.08 23.178 L 141.481 22.983 C 141.514 22.925 141.572 22.822 141.654 22.718 C 141.757 22.568 142.01 22.291 142.171 22.165 C 142.356 22.027 142.597 21.957 142.863 21.957 L 143.922 21.957 C 144.188 21.957 144.452 22.038 144.637 22.176 C 144.809 22.281 145.063 22.591 145.154 22.718 C 145.282 22.891 145.316 23.11 145.316 23.341 L 145.316 26.151 L 145.397 26.969 L 144.775 26.969 L 144.775 26.969 Z  M 144.695 25.69 L 144.695 24.654 L 142.7 24.654 C 142.62 24.654 142.551 24.664 142.494 24.7 C 142.31 24.803 142.068 25.045 141.964 25.241 C 141.94 25.287 141.929 25.344 141.929 25.425 L 141.929 25.656 C 141.929 25.736 141.94 25.794 141.964 25.84 C 142.068 26.036 142.31 26.277 142.494 26.382 C 142.551 26.416 142.62 26.428 142.7 26.428 L 143.669 26.428 C 143.726 26.428 143.784 26.416 143.83 26.393 C 144.015 26.301 144.544 25.967 144.695 25.69 Z " fill="rgb(0,0,0)"/><path d=" M 152.85 26.808 C 152.665 26.946 152.401 27.027 152.148 27.027 L 150.972 27.027 C 150.719 27.027 150.443 26.946 150.258 26.808 C 150.097 26.693 149.831 26.382 149.739 26.255 C 149.624 26.082 149.578 25.875 149.578 25.644 L 149.578 23.341 C 149.578 23.11 149.624 22.902 149.739 22.73 C 149.831 22.603 150.097 22.291 150.258 22.176 C 150.443 22.038 150.719 21.957 150.972 21.957 L 152.112 21.957 C 152.366 21.957 152.631 22.038 152.816 22.176 C 153.103 22.384 153.345 22.753 153.495 22.995 L 152.896 23.19 C 152.804 22.995 152.527 22.707 152.343 22.603 C 152.285 22.568 152.216 22.557 152.136 22.557 L 150.984 22.557 C 150.903 22.557 150.833 22.568 150.776 22.603 C 150.592 22.707 150.338 22.971 150.234 23.168 C 150.212 23.214 150.201 23.282 150.201 23.363 L 150.201 25.621 C 150.201 25.702 150.212 25.77 150.234 25.817 C 150.338 26.013 150.58 26.277 150.765 26.382 C 150.822 26.416 150.891 26.428 150.972 26.428 L 152.17 26.428 C 152.251 26.428 152.321 26.416 152.378 26.382 C 152.562 26.277 152.838 25.989 152.919 25.817 L 152.931 25.794 L 153.53 26.001 C 153.391 26.255 153.126 26.611 152.85 26.808 Z " fill="rgb(0,0,0)"/><path d=" M 158.172 26.969 L 158.102 26.393 C 157.964 26.543 157.803 26.693 157.676 26.784 C 157.514 26.9 157.297 27.027 157.1 27.027 L 156.236 27.027 C 155.982 27.027 155.706 26.946 155.523 26.808 C 155.362 26.693 155.096 26.382 155.004 26.255 C 154.888 26.082 154.843 25.875 154.843 25.644 L 154.843 22.015 L 155.465 22.015 L 155.465 25.621 C 155.465 25.702 155.465 25.77 155.487 25.817 C 155.591 26.013 155.857 26.277 156.041 26.382 C 156.098 26.416 156.167 26.428 156.247 26.428 L 157.066 26.428 C 157.124 26.428 157.181 26.416 157.228 26.393 C 157.422 26.289 157.918 25.978 158.091 25.702 L 158.091 22.015 L 158.713 22.015 L 158.713 26.151 L 158.793 26.969 L 158.172 26.969 Z " fill="rgb(0,0,0)"/><path d=" M 160.522 26.969 C 160.499 26.773 160.418 26.52 160.418 26.323 L 160.418 20.057 L 161.04 20.057 L 161.04 26.185 C 161.04 26.439 161.121 26.715 161.144 26.969 L 160.522 26.969 L 160.522 26.969 Z " fill="rgb(0,0,0)"/><path d=" M 163.805 22.615 L 163.805 25.563 C 163.805 25.644 163.817 25.736 163.839 25.782 C 163.942 25.978 164.173 26.22 164.357 26.323 C 164.416 26.358 164.507 26.37 164.588 26.37 L 165.313 26.37 L 165.313 26.969 L 164.577 26.969 C 164.323 26.969 164.058 26.888 163.873 26.75 C 163.712 26.635 163.447 26.323 163.355 26.197 C 163.24 26.024 163.182 25.817 163.182 25.587 L 163.182 22.615 L 162.365 22.615 L 162.365 22.015 L 163.182 22.015 L 163.182 20.057 L 163.805 20.057 L 163.805 22.015 L 165.325 22.015 L 165.325 22.615 L 163.805 22.615 L 163.805 22.615 Z " fill="rgb(0,0,0)"/><path d=" M 169.875 26.969 L 169.806 26.393 C 169.669 26.543 169.507 26.693 169.38 26.784 C 169.219 26.9 169 27.027 168.804 27.027 L 167.94 27.027 C 167.687 27.027 167.411 26.946 167.226 26.808 C 167.065 26.693 166.8 26.382 166.708 26.255 C 166.592 26.082 166.546 25.875 166.546 25.644 L 166.546 22.015 L 167.168 22.015 L 167.168 25.621 C 167.168 25.702 167.168 25.77 167.192 25.817 C 167.296 26.013 167.56 26.277 167.745 26.382 C 167.803 26.416 167.871 26.428 167.952 26.428 L 168.769 26.428 C 168.828 26.428 168.885 26.416 168.931 26.393 C 169.127 26.289 169.622 25.978 169.794 25.702 L 169.794 22.015 L 170.417 22.015 L 170.417 26.151 L 170.498 26.969 L 169.875 26.969 Z " fill="rgb(0,0,0)"/><path d=" M 175.116 23.178 C 175.002 23.007 174.749 22.707 174.564 22.603 C 174.506 22.568 174.437 22.557 174.356 22.557 L 173.792 22.557 C 173.735 22.557 173.665 22.568 173.619 22.591 C 173.423 22.695 172.905 23.007 172.743 23.294 L 172.743 26.969 L 172.122 26.969 L 172.122 22.834 L 172.053 22.015 L 172.674 22.015 L 172.743 22.603 C 172.893 22.454 173.044 22.291 173.181 22.2 C 173.342 22.084 173.562 21.957 173.758 21.957 L 174.333 21.957 C 174.587 21.957 174.852 22.038 175.036 22.176 C 175.198 22.291 175.451 22.603 175.542 22.73 C 175.612 22.822 175.682 22.925 175.715 22.983 L 175.116 23.178 Z " fill="rgb(0,0,0)"/><path d=" M 180.196 25.794 L 180.807 26.001 C 180.761 26.094 180.715 26.162 180.646 26.255 C 180.554 26.382 180.288 26.693 180.127 26.808 C 179.943 26.946 179.677 27.027 179.424 27.027 L 178.249 27.027 C 177.996 27.027 177.72 26.946 177.535 26.808 C 177.374 26.693 177.11 26.382 177.018 26.255 C 176.902 26.082 176.845 25.875 176.845 25.644 L 176.845 23.341 C 176.845 23.11 176.902 22.902 177.018 22.73 C 177.11 22.603 177.374 22.291 177.535 22.176 C 177.72 22.038 177.996 21.957 178.249 21.957 L 179.402 21.957 C 179.655 21.957 179.931 22.038 180.116 22.176 C 180.277 22.291 180.542 22.603 180.634 22.73 C 180.75 22.902 180.795 23.11 180.795 23.341 L 180.795 24.769 L 177.467 24.769 L 177.467 25.621 C 177.467 25.702 177.477 25.77 177.501 25.817 C 177.605 26.013 177.859 26.277 178.043 26.382 C 178.1 26.416 178.157 26.428 178.238 26.428 L 179.448 26.428 C 179.528 26.428 179.597 26.416 179.655 26.382 C 179.84 26.277 180.093 25.989 180.184 25.817 L 180.196 25.794 Z  M 177.467 23.363 L 177.467 24.17 L 180.174 24.17 L 180.174 23.363 C 180.174 23.282 180.174 23.214 180.151 23.168 C 180.047 22.971 179.782 22.707 179.597 22.603 C 179.54 22.568 179.471 22.557 179.391 22.557 L 178.249 22.557 C 178.169 22.557 178.112 22.568 178.054 22.603 C 177.87 22.707 177.605 22.971 177.501 23.168 C 177.477 23.214 177.467 23.282 177.467 23.363 Z " fill="rgb(0,0,0)"/></g></g><g><path d=" M 31.431 49.662 L 28.494 49.662 L 28.494 46.709 L 25.022 46.709 L 25.022 47.163 C 25.022 49.298 26.514 50.791 28.652 50.791 L 31.256 50.791 C 33.395 50.791 34.887 49.298 34.887 47.163 L 34.887 46.709 L 31.431 46.709 L 31.431 49.662 Z  M 31.256 39.909 L 28.652 39.909 C 26.514 39.909 25.022 41.406 25.022 43.538 L 25.022 43.954 L 28.468 43.954 L 28.468 41.041 L 31.431 41.041 L 31.431 43.954 L 34.887 43.954 L 34.887 43.538 C 34.887 41.406 33.395 39.909 31.256 39.909 Z " fill="rgb(0,0,0)"/><path d=" M 9.486 48.446 L 6.881 48.446 C 6.019 48.446 5.599 48.028 5.599 47.163 L 5.599 43.538 C 5.599 42.675 6.019 42.258 6.881 42.258 L 9.486 42.258 C 10.324 42.258 10.767 42.701 10.767 43.538 L 10.767 47.163 C 10.767 48 10.324 48.444 9.486 48.446 Z  M 9.486 39.85 L 6.881 39.85 C 4.708 39.85 3.193 41.368 3.193 43.538 L 3.193 54.998 L 5.599 55 C 5.599 55 5.599 50.621 5.599 50.606 C 5.605 50.628 5.7 50.659 5.7 50.659 C 6.138 50.789 6.513 50.851 6.881 50.851 L 9.486 50.851 C 11.658 50.851 13.174 49.336 13.174 47.163 L 13.174 43.538 C 13.174 41.368 11.658 39.85 9.486 39.85 Z " fill="rgb(0,0,0)"/><path d=" M 44.665 39.85 L 42.06 39.85 C 41.721 39.85 41.333 39.918 40.881 40.056 L 40.755 40.09 L 40.755 35.906 L 38.391 35.906 L 38.373 50.851 L 40.755 50.851 L 40.755 43.538 C 40.755 42.714 41.219 42.258 42.06 42.258 L 44.665 42.258 C 45.529 42.258 45.947 42.675 45.947 43.538 L 45.947 50.851 L 48.354 50.851 L 48.354 43.538 C 48.354 41.368 46.838 39.85 44.665 39.85 Z " fill="rgb(0,0,0)"/><path d=" M 109.848 50.851 L 112.234 50.851 L 112.234 39.852 L 109.847 39.85 L 109.848 50.851 Z  M 112.234 35.921 L 109.848 35.921 L 109.847 38.451 L 112.234 38.451 L 112.234 35.921 L 112.234 35.921 Z " fill="rgb(0,0,0)"/><path d=" M 106.115 42.258 L 106.119 39.852 L 102.847 39.85 L 102.847 35.921 L 100.444 35.921 L 100.441 39.852 L 98.338 39.85 L 98.338 42.258 L 100.444 42.258 L 100.441 47.163 C 100.441 49.368 101.924 50.851 104.132 50.851 L 106.076 50.851 L 106.076 48.463 L 104.132 48.465 C 103.267 48.465 102.847 48.028 102.847 47.163 L 102.847 42.258 L 106.115 42.258 L 106.115 42.258 Z " fill="rgb(0,0,0)"/><path d=" M 68.882 48.465 C 68.02 48.465 67.602 48.028 67.602 47.163 L 67.602 35.93 L 65.213 35.93 L 65.21 47.163 C 65.21 49.368 66.675 50.851 68.882 50.851 L 70.858 50.851 L 70.858 48.463 L 68.882 48.465 Z " fill="rgb(0,0,0)"/><path d=" M 19.918 39.859 C 17.712 39.859 16.228 41.344 16.228 43.547 L 16.228 50.851 L 18.636 50.851 L 18.636 43.547 C 18.636 42.685 19.056 42.265 19.918 42.265 L 22.81 42.265 L 22.81 39.862 L 19.918 39.859 Z " fill="rgb(0,0,0)"/><path d=" M 80.763 39.86 L 79.69 43.67 L 78.544 47.8 C 78.35 48.461 78.336 48.516 77.859 48.516 C 77.39 48.516 77.367 48.474 77.213 47.931 L 74.963 39.86 L 72.453 39.86 L 74.873 48.473 C 75.392 50.28 76.173 50.922 77.859 50.922 C 79.544 50.922 80.329 50.268 80.849 48.426 L 83.255 39.86 L 80.763 39.86 L 80.763 39.86 Z " fill="rgb(0,0,0)"/><path d=" M 55.492 42.121 L 58.097 42.121 C 59.04 42.121 59.518 42.599 59.518 43.538 L 59.518 44.274 L 54.074 44.274 L 54.074 43.538 C 54.074 42.623 54.578 42.121 55.492 42.121 Z  M 58.097 39.85 L 55.492 39.85 C 53.321 39.85 51.805 41.368 51.805 43.538 L 51.805 47.163 C 51.805 49.336 53.321 50.851 55.492 50.851 L 61.221 50.851 L 61.221 48.463 L 55.383 48.465 C 54.543 48.465 54.101 48 54.101 47.163 L 54.101 46.532 L 60.107 46.532 C 60.917 46.532 61.786 45.896 61.786 44.84 L 61.786 43.538 C 61.786 41.368 60.269 39.85 58.097 39.85 Z " fill="rgb(0,0,0)"/><path d=" M 88.008 43.765 C 88.008 42.765 88.565 42.121 89.427 42.121 L 92.032 42.121 C 92.972 42.121 93.449 42.599 93.449 43.538 L 93.449 44.274 L 88.008 44.274 L 88.008 43.765 L 88.008 43.765 Z  M 92.032 39.85 L 89.427 39.85 C 87.254 39.85 85.737 41.368 85.737 43.538 L 85.737 47.163 C 85.737 49.336 87.254 50.851 89.427 50.851 L 95.155 50.851 L 95.155 48.463 L 89.318 48.465 C 88.479 48.465 88.037 48 88.037 47.163 L 88.037 46.523 L 94.043 46.523 C 94.85 46.523 95.722 45.896 95.722 44.84 L 95.722 43.538 C 95.722 41.368 94.204 39.85 92.032 39.85 Z " fill="rgb(0,0,0)"/><path d=" M 122.451 48.584 L 119.208 48.584 C 117.935 48.584 117.79 47.962 117.79 47.495 C 117.79 46.711 118.023 46.507 119.047 46.405 L 122.785 46.001 C 122.787 46.001 123.253 45.896 123.275 45.891 L 123.278 47.777 C 123.278 48.341 123.015 48.584 122.451 48.584 Z  M 121.883 39.85 L 117.054 39.85 L 117.054 42.258 L 121.883 42.258 C 122.614 42.258 123.024 42.599 123.098 43.273 L 123.098 43.438 C 123.072 43.582 122.958 43.69 122.485 43.76 L 118.829 44.135 C 115.949 44.447 115.519 46.371 115.519 47.495 C 115.519 49.813 117.37 50.851 119.208 50.851 L 122.451 50.851 C 124.263 50.851 125.523 49.586 125.523 47.777 L 125.523 43.538 C 125.523 41.368 124.028 39.85 121.883 39.85 Z " fill="rgb(0,0,0)"/></g></g></g></g></svg>